<svg id="_6" data-name="6" xmlns="http://www.w3.org/2000/svg" xmlns:xlink="http://www.w3.org/1999/xlink" viewBox="0 0 2464 1643">
  <defs>
    <style>
      .lg-lg-lg-cls-1 {
        fill: #301a4b;
      }

      .lg-cls-1, .lg-cls-10, .lg-cls-11, .lg-cls-12, .lg-cls-13, .lg-cls-14, .lg-cls-15, .lg-cls-16, .lg-cls-17, .lg-cls-18, .lg-cls-19, .lg-cls-2, .lg-cls-20, .lg-cls-21, .lg-cls-22, .lg-cls-23, .lg-cls-24, .lg-cls-25, .lg-cls-26, .lg-cls-27, .lg-cls-28, .lg-cls-29, .lg-cls-3, .lg-cls-30, .lg-cls-31, .lg-cls-32, .lg-cls-33, .lg-cls-34, .lg-cls-35, .lg-cls-36, .lg-cls-37, .lg-cls-4, .lg-cls-5, .lg-cls-6, .lg-cls-7, .lg-cls-8, .lg-cls-9 {
        fill-rule: evenodd;
      }

      .lg-cls-2 {
        fill: #003151;
      }

      .lg-cls-3 {
        fill: #cfbaea;
      }

      .lg-cls-4 {
        fill: #dbe8f9;
      }

      .lg-cls-5 {
        fill: #f3f7ff;
      }

      .lg-cls-6 {
        fill: #d2e4fc;
      }

      .lg-cls-7 {
        fill: #ff5a72;
      }

      .lg-cls-8 {
        fill: #e63d5e;
      }

      .lg-cls-9 {
        fill: #bb355a;
      }

      .lg-cls-10 {
        fill: #c0aadb;
      }

      .lg-cls-11 {
        fill: #d7c1f2;
      }

      .lg-cls-12 {
        fill: #a38dbe;
      }

      .lg-cls-13 {
        fill: #9a1e54;
      }

      .lg-cls-14 {
        fill: #640a31;
      }

      .lg-cls-15 {
        fill: #9e7c5c;
      }

      .lg-cls-16 {
        fill: #ed9870;
      }

      .lg-cls-17 {
        fill: #ffaa83;
      }

      .lg-cls-18 {
        fill: #d3d727;
      }

      .lg-cls-19 {
        fill: #bfd1ea;
      }

      .lg-cls-20 {
        fill: #00558c;
      }

      .lg-cls-21 {
        fill: #001522;
      }

      .lg-cls-22 {
        fill: #ce7c56;
      }

      .lg-cls-23 {
        fill: #1771ac;
      }

      .lg-cls-24 {
        fill: #ceab8b;
      }

      .lg-cls-25 {
        fill: #595959;
      }

      .lg-cls-26 {
        fill: #f18d69;
      }

      .lg-cls-27 {
        fill: #aac5fc;
      }

      .lg-cls-28 {
        fill: #cedefe;
      }

      .lg-cls-29 {
        fill: #73a4de;
      }

      .lg-cls-30 {
        fill: #8faed0;
      }

      .lg-cls-31 {
        fill: #d4576a;
      }

      .lg-cls-32 {
        fill: #6ecc00;
      }

      .lg-cls-33 {
        fill: #549c00;
      }

      .lg-cls-34 {
        fill: #a6ace0;
      }

      .lg-cls-35 {
        fill: #264376;
      }

      .lg-cls-36 {
        fill: #345ba7;
      }

      .lg-cls-37 {
        fill: url(#linear-gradient);
      }
    </style>
    <linearGradient id="linear-gradient" x1="1231.2" y1="1051.66" x2="1231.2" y2="872.79" gradientUnits="userSpaceOnUse">
      <stop offset="0.57" stop-color="#e9edf8"/>
      <stop offset="1" stop-color="#f8b504"/>
    </linearGradient>
  </defs>
  <path class="lg-cls-1" d="M1671.18,437.2V717.44l-19.89,3.41V437.2h19.89Z"/>
  <path class="lg-cls-1" d="M1697.77,436.63c3.71-.15,7.35-.27,10.91-.34V487.2a5.51,5.51,0,0,1-.11,1.14,12,12,0,0,1,4.43,2.84,13.65,13.65,0,0,1,4.2,10A12.93,12.93,0,0,1,1713,511a13.92,13.92,0,0,1-23.75-9.77,13.82,13.82,0,0,1,4.09-10,16.61,16.61,0,0,1,4.54-3,4.49,4.49,0,0,1-.11-1Z"/>
  <path class="lg-cls-2" d="M1741.18,943.7v1l-.34-.35A1,1,0,0,0,1741.18,943.7Z"/>
  <path class="lg-cls-2" d="M1019,1180.88v.11c-2.27,2.58-4.43,5.26-6.48,8.07-.45.6-.87,1.21-1.25,1.82a76.3,76.3,0,0,0-6.36,12.72,246.2,246.2,0,0,0-7.73,23.53q-3.52,12.61-3.41,21.36t8,12.62q7.95,3.86,11.82-2.73a19.27,19.27,0,0,1,5.57-6.93,8.18,8.18,0,0,1,4.65-1.82q9.21-.68,9.21,8.3-.12,10.68-9.43,16.59a27.69,27.69,0,0,1-17.73,3.86,35,35,0,0,1-10.12-1.93,27.64,27.64,0,0,1-18.29-16.71,9.89,9.89,0,0,0-.57-1.81,7,7,0,0,1-.34-1.14q-3.87-12-1.48-28.75a80.5,80.5,0,0,1,2.39-11.14,161.41,161.41,0,0,1,6.14-16.93q1.92-4.44,4.31-9.09,2.05-4.67,4.66-9.55c.84-1.52,1.59-3,2.28-4.55l.11-.11q1.82-3.53,3.41-6.82,8.52-17.16,10.57-24.89c-.08-3,0-6.1.11-9.43.08-1.51.19-3.07.34-4.66q1.14-16.14,3.53-33.75a414,414,0,0,1,8.75-43.64q5.79-23.4,12.72-34.66t26.94-18.86q20.12-7.62,23.29-34.32a89.78,89.78,0,0,0-1.81-31.82l-2.16-7.85a4.57,4.57,0,0,0-.23-.56c-.61-1.82-1.33-3.91-2.16-6.25-.23-.61-.45-1.29-.68-2V917a1.35,1.35,0,0,0-.11-.57l-3.3-9.89c-.68-2-1.36-4.13-2-6.25q3.53-4.66,21.25,7.5,17.63,11.94,19.55,10.8,2.16-1.26,10.8-3.18,4.77-6.37,9.09-13.19t6.82-8.06q2.39-1.14,6.36,4.88c.23.38.46.76.68,1.14q3.3,4.89,3.87,16.48l.22.22q19.56,17.5,10.57,32.5-8.74,15.12-16.36,17.51-7.39,2.15-4.77,19.88t5.91,24.44q3.51,6.7,5.34,19.88t-2.16,42.28q-4.1,29.2-5.57,39-1.71,9.66-4.89,22.39a28.27,28.27,0,0,0-.68,10.57,19.2,19.2,0,0,0,4.55,11.13q7,9.21,2,12a22,22,0,0,1-11.93,2.39q-7.15-.47-20-14,5.57,11.36,7.5,14.66t-7.5,5.68q-9.32,2.51-13-2a33.54,33.54,0,0,1-5.68-9.31q-1.81-4.89-9.55-5.46c-1.59,0-3.22-.08-4.88-.23a6.92,6.92,0,0,0-1.25-.11,1.21,1.21,0,0,1,.45.23,10.79,10.79,0,0,1,1.82,1.25.73.73,0,0,1,.57.56,7.5,7.5,0,0,1,1.48,4.21,12.65,12.65,0,0,1-1.37,6.59,13.49,13.49,0,0,1-4.32,5q-5.57,2.5-16.59,2.16t-18.18-1q-7.15-.46-16.59-1.59a12.43,12.43,0,0,1-3-.57Z"/>
  <path class="lg-cls-2" d="M1380.82,1016.55q5.68-4.77,9.77-7.73,5.91-4.2,12.05-8a209.29,209.29,0,0,1,43.18-20.69q23.42-2.38,34.1,6.93a20.46,20.46,0,0,1,2.73,2.84q5.79,7,5.79,17.85,0,1.69-1.82,8.07a41.06,41.06,0,0,0-1.7,7.84l15.91,39v.11q12.17-6.13,16.48-16.48,17.49-15.67,35.8-44.55,1.25-2,2.38-4.09l14.2-24a24,24,0,0,1,1.71-2.73q6.7-11,11.7-18.19,12.74-17.16,47.51-31.7,19.67-8,26.59-11.71h.11l.12-.11a83.82,83.82,0,0,0,23.07-17.16,66.51,66.51,0,0,1,28-1.25q15.91,2.61,24.32,13.41a31.74,31.74,0,0,1,5.46,7.84,34.47,34.47,0,0,0-5.12,4.32q-11.13,10.8-32.61,33.41-39.78,35.8-63.76,53.53-24.88,19-96.48,60.34-24.43,14.32-37.73,23.75-15-8.3-33.75-17.73-3.3-1.93-9.43-5.68a37.19,37.19,0,0,0-10.8-4.32A368.71,368.71,0,0,1,1380.82,1016.55Z"/>
  <path class="lg-cls-2" d="M1568.56,1073.6q1.25-.8,2.61-1.59,13-7.85,27.84-16.71l9-5.68c-.76.53-1.52,1.1-2.28,1.7l-2.27,1.59h-.12l-11.13,7.16q-8.42,4.67-15.12,9.1Q1572.66,1071.55,1568.56,1073.6Z"/>
  <path class="lg-cls-3" d="M1708.68,436.29c-3.56.07-7.2.19-10.91.34q-13,.45-26.59.57h-19.89q-58.76-.69-101.71-7.5-44.1-6.94-47.16-17.39v-1.14a5.94,5.94,0,0,1,.46-2.27l32.49-200.58q1.61-8.52,39.1-14.55,10.58-1.82,22.84-3,29.43-3,65.91-3,51.83,0,89.33,5.91t39,14.55l31.93,200.24a9.29,9.29,0,0,1,1.14,1.82v1.47q-2.05,10.45-47.17,17.85A606.69,606.69,0,0,1,1708.68,436.29Z"/>
  <path class="lg-cls-4" d="M1192.17,1442.71l214.9-37.84v-31.6q88.42-1,188.76-13.52,105.69-13,164.1-54.21l74.55,13.07q52.27,9.21,2.73,30.91t-171.94,43.3h-.34a2369,2369,0,0,1-246.27,30.23q-14.43,1-28,1.93l-175.47,30.23-305.47-52.73,67.62-11.71v14.44l214.78,37.84ZM977.39,1322.59V1376l-41-7.16q-52.5-9.31-3.06-31Q950.79,1330.2,977.39,1322.59ZM1303,607.77a6.85,6.85,0,0,0,.8,1.25q36.93,55.35,67.28,50.12a137.09,137.09,0,0,0,9.09-24l3.18-2.84a28.57,28.57,0,0,1,.23,7.27q0,11.37-2.5,19-5.34,16.36-20.46,16.37-21.71,0-46.48-28.64a145.51,145.51,0,0,1-15.91-22.39c-1-1.82-1.85-3.48-2.61-5A66,66,0,0,0,1303,607.77Zm-22.61,231q0,12.5-.68,24.55a64.07,64.07,0,0,0-19.89,3.06q-5-27.6-10.11-55.57Q1238,747.1,1238,719.37q0-30.92,15.46-54.21,5.68-6.13,9-10.11a39.33,39.33,0,0,1,11.13,6.82,58.58,58.58,0,0,1,16.93,21.82,37.18,37.18,0,0,1,3.41,11.48,35.92,35.92,0,0,1,0,13.4q-3.06,13.65-16.13,21.26-1.71,20,.22,54.43Q1280.7,824.94,1280.36,838.81Z"/>
  <path class="lg-cls-5" d="M908.41,853.24c-.46,1.22-.87,2.43-1.25,3.64q-8.19-13.41-15.46-25Q828.29,731.65,773.4,689.26q-74.1-57.39-151.71-29.1-3.2,1.14-13,5.69c-1.44.75-3.41.53-5.91-.69l-.11-5.22q123-103.08,264.45,15.34v67.39l41.36,7.38a36.8,36.8,0,0,0,2.84,4.89q6.48,8.52,17.62,8.53,11.47,0,17-6.71c1.14,1.36,2.28,2.77,3.41,4.2q-15.33,28.53-27.27,56.6a22,22,0,0,0-11.93,5.11q-6.94,6-6.94,16a23.7,23.7,0,0,0,5,14.43ZM1454.69,754q-1.49-9.19-7.84-19.32-16.14-21-20.8-32.16c.23-2,.45-4,.68-6.13a31.08,31.08,0,0,0,.34-4.66l-1-25.91a3.78,3.78,0,0,0-.34-1.71,2.37,2.37,0,0,0-.34-1.25,1.38,1.38,0,0,0-.34-1,3.94,3.94,0,0,0-.34-1.71v-.79a3.15,3.15,0,0,0-.34-1.37,40.52,40.52,0,0,0-8.07-15.91,277.49,277.49,0,0,1,21.59-30.91q80.24-98.41,211.83-77.39-80.81,26.37-128.07,82.05-31.16,36.25-57.85,101.94Q1459.58,727.89,1454.69,754Zm-14.09,77.85q-5.91-6.25-11.82-12.62-.46-4.87-1-8.75v-.34a19.32,19.32,0,0,1,.91-11.82c.45-.91.91-1.81,1.36-2.72a38,38,0,0,1,6.13-6.71,1,1,0,0,0,.69-.34c2.42-2.05,4.32-3.75,5.68-5.11q3.3-2.73,3.63-3.07a17.26,17.26,0,0,0,4.44-6h.34c0-.08,0-.12.11-.12-.07.38-.15.76-.22,1.14Q1445,810.4,1440.6,831.88ZM896.93,785.74q4.32,6.13,13.07,6.14,10.11,0,13.86-8.41,1.71-8.07,1.71-7.5,0-7.4-4.89-11.82a16,16,0,0,0-10.91-4,15.76,15.76,0,0,0-10.91,4,15,15,0,0,0-5,11.82A16.44,16.44,0,0,0,896.93,785.74Z"/>
  <path class="lg-cls-6" d="M925.23,628.34,882,636Q779.2,501.52,645.21,409.47,807.38,401,938,548.45a11.86,11.86,0,0,0-1.36.91,24.4,24.4,0,0,0-29.55.91q-6.93,5.91-6.93,16a23.6,23.6,0,0,0,4.77,14.32q6,8.64,17.51,8.64,10.56,0,16.25-5.57L940,596a20.42,20.42,0,0,0-10.68,5q-6.93,5.91-6.93,16A23.33,23.33,0,0,0,925.23,628.34Zm248.08,445.37v-.34c0-.61.45-1.18,1.36-1.7q2.5-1.71,9.78-3a115.25,115.25,0,0,1,12.38-1.48,21.09,21.09,0,0,0,1.82,2,53.75,53.75,0,0,0-5.68.68c-5.23,1.14-8,2.27-8.18,3.41.22,1.06,1.78,1.93,4.66,2.61,1,.23,2.16.46,3.52.69a83.05,83.05,0,0,0,18.41,1.7q11.47-.34,16.36-1,5-1,7.62-1.71c1.82-.45,2.73-1.21,2.73-2.27s-2.58-2.16-7.73-3.07l-4.43-.68.34-.34a10.11,10.11,0,0,0,1.7-1.93,105.62,105.62,0,0,1,10.8,1.36q11.13,1.93,11.13,5v.68c-.52.91-2.46,1.82-5.79,2.73a15.81,15.81,0,0,1-2.28.57c-.9.23-1.93.45-3.06.68-1.9.3-3.87.57-5.91.79a191.37,191.37,0,0,1-21.14,1,149.46,149.46,0,0,1-27.27-2.16c-.84-.23-1.82-.45-3-.68a33.13,33.13,0,0,1-4.66-1.37C1174.79,1075.22,1173.61,1074.47,1173.31,1073.71Z"/>
  <path class="lg-cls-7" d="M882,636l43.19-7.62a27.83,27.83,0,0,0,1.93,3.07,19.82,19.82,0,0,0,9.32,7.27,2.79,2.79,0,0,0-1.25,2.05v.8q1,1.82,6.93,3.52a15.6,15.6,0,0,0-4.66,5.79l-35.8-6.25a23,23,0,0,0-2.27-2.38,21.42,21.42,0,0,0-15.12-5.57A22.25,22.25,0,0,0,873,639.48l-5.45-.91Zm158.88-.91q-5.12,4.2-9.89,8.75h-.12c-.45-.23-.87-.46-1.25-.68,1.6-.76,2.51-1.56,2.73-2.39v-.34q0-2.83-9.2-5.11l.34-3.19Zm254.89-177.28a89,89,0,0,0-16.13,27.16,33.5,33.5,0,0,1-3.64-3.19,32.4,32.4,0,0,1-9.43-23.29c0-.91,0-1.75.11-2.5a32.26,32.26,0,0,1,40.69-29,29.85,29.85,0,0,1,14.43,8.52q1.48,1.59,2.73,3.18a76.86,76.86,0,0,0-11.14,5.69,113.21,113.21,0,0,0-15.91,11.47l-.68.69A7.22,7.22,0,0,1,1295.81,457.77Zm130.24,244.78q4.67,11.15,20.8,32.16,6.36,10.13,7.84,19.32v.46a.29.29,0,0,0-.11.22,22.87,22.87,0,0,1-16.37,6.94q-4.2,0-12.5-2.5t-21.59-2.62A41.74,41.74,0,0,0,1382,763a52.78,52.78,0,0,0-9.55,6.93q-15.23,13.18-31.71,13.19a24.52,24.52,0,0,1-5.79-.69q-10.92-2.49-18.07-14.77-6.13-10.45-6.14-16.48,3.42-23,3.41-26.36a92.19,92.19,0,0,0-6.25-34.44A87.23,87.23,0,0,0,1283.77,657q-3.52-3.06-7.39-5.91a93.49,93.49,0,0,0-13.52-8.18c1.59-1,3.07-1.86,4.43-2.61l6.25-3.75q4.44-2.73,7.5-4.78a63.69,63.69,0,0,0,11.37-9.2,38.19,38.19,0,0,0,3.18-3.64c.76,1.52,1.63,3.18,2.61,5a145.51,145.51,0,0,0,15.91,22.39q24.78,28.63,46.48,28.64,15.12,0,20.46-16.37,2.51-7.61,2.5-19a28.57,28.57,0,0,0-.23-7.27l3.3-3.18c2.2.61,4.54,1.36,7,2.27q1.93,2.73,4,5.46a127.73,127.73,0,0,1,10.91,18.29q2.51,4.89,4.66,10.34l8.07,21.94a28.77,28.77,0,0,1,1,4A101.83,101.83,0,0,1,1426.05,702.55Zm-4.77,136.26a60.65,60.65,0,0,0-.68,30,71.37,71.37,0,0,0,12.84,27.73,65.58,65.58,0,0,1-30,11.14q-18.3,2-40.46-4.89-6.48-1.93-20.91-7.73-4.66-14.2-4.66-25,0-25.34,10.91-41.7,9.89-15.12,28.86-22.62,12.39-4.89,34-6.48,8.07-.68,17.51-.91a19.32,19.32,0,0,0-.91,11.82v.34c-.53,2-1,4-1.48,5.91q-3.42,13.53-4.66,20.34A6.43,6.43,0,0,0,1421.28,838.81ZM985.91,651.75l-8.18,1.37a17.93,17.93,0,0,0-3.07-4.32q4.2.11,8.87.11H986q-.12,1.37-.12,2.73Zm9,524.92-17.61-3.07,21-3.75Q996.71,1173.15,994.89,1176.67Zm411.16-2.84-213.88,37.62-86.88-15.23h0L1019,1180.88l3.75-4a12.43,12.43,0,0,0,3,.57q9.43,1.13,16.59,1.59t18.18,1q11,.35,16.59-2.16a13.49,13.49,0,0,0,4.32-5,12.65,12.65,0,0,0,1.37-6.59,7.5,7.5,0,0,0-1.48-4.21.73.73,0,0,0-.57-.56,10.79,10.79,0,0,0-1.82-1.25,1.21,1.21,0,0,0-.45-.23,6.92,6.92,0,0,1,1.25.11c1.66.15,3.29.23,4.88.23q7.74.57,9.55,5.46a33.54,33.54,0,0,0,5.68,9.31q3.65,4.55,13,2,9.32-2.28,7.5-5.68t-7.5-14.66q12.84,13.51,20,14a22,22,0,0,0,11.93-2.39q5-2.85-2-12a19.2,19.2,0,0,1-4.55-11.13l35.23-6.25v23.18q-15.57,2.84-15.57,6.7v.57q.91,2.73,11.48,5.23a40.57,40.57,0,0,1,4.2.8q16.26,2.94,38.75,3a259.22,259.22,0,0,0,38.19-2.39l4.43-1q10-2.28,11.48-4.77v-.8q0-4.42-15.91-7.27a1,1,0,0,1-.46-.12v-13.75h8.19c1.74,0,3.37-.07,4.88-.22l144,25.45Z"/>
  <path class="lg-cls-8" d="M1031,643.8l-.12.11v-.11Zm-29.78,33.41q-3.86,5-7.38,10.34L990.23,693q-9.09,13.74-17.5,27.27a20,20,0,0,0-7.5-1.36,9,9,0,0,0-1.37.11V683.8q9.55-2,13.42-10.23a23.58,23.58,0,0,0,2.15-7.84,26.15,26.15,0,0,0,.23-4,19.46,19.46,0,0,0-1.93-8.63l8.18-1.37a24.25,24.25,0,0,0,4.66,14.32,20.62,20.62,0,0,0,7.62,6.48c.53,1,1.09,2,1.7,3A9.85,9.85,0,0,0,1001.25,677.21Zm190.92,534.24,213.88-37.62,1-.23v231.27l-214.9,37.84V1211.45Z"/>
  <path class="lg-cls-9" d="M977.39,1376V1259.74a27.64,27.64,0,0,0,18.29,16.71,35,35,0,0,0,10.12,1.93,27.69,27.69,0,0,0,17.73-3.86q9.32-5.91,9.43-16.59,0-9-9.21-8.3a8.18,8.18,0,0,0-4.65,1.82,19.27,19.27,0,0,0-5.57,6.93q-3.87,6.58-11.82,2.73-7.73-3.75-8-12.62t3.41-21.36a246.2,246.2,0,0,1,7.73-23.53,76.3,76.3,0,0,1,6.36-12.72c.38-.61.8-1.22,1.25-1.82,2-2.81,4.21-5.49,6.48-8.07l86.48,15.34,86.71,15.23v231.49l-214.78-37.84V1376Zm-29-645.95a21.11,21.11,0,0,0-4.55-5.57A22.26,22.26,0,0,0,928.52,719a22.94,22.94,0,0,0-15.23,5.34q-6.93,6-6.93,16.14a22.42,22.42,0,0,0,2.16,9.54l-41.36-7.38V672.55q6.14,8.64,17.38,8.64,14.55,0,19.66-10.8a32.06,32.06,0,0,0,2.16-11.82q0-8.4-4.66-14l35.8,6.25a22.86,22.86,0,0,0-2.27,10.57,11.36,11.36,0,0,0,.11,1.48,24.89,24.89,0,0,0-3.41-.45,14.12,14.12,0,0,0-10.79,3.63q-5,4.44-5,12.84a20.35,20.35,0,0,0,3.07,11q4.21,6.81,13,6.82,10.33,0,13.86-8.53a22.34,22.34,0,0,0,1.59-6,21.83,21.83,0,0,0,9.89,2.16,33.51,33.51,0,0,0,6.36-.57V719a17,17,0,0,0-10.68,4A13.14,13.14,0,0,0,948.41,730.05Zm2.27,14.21a.33.33,0,0,0,.12.23,15.37,15.37,0,0,0,5.11,4.54q-2.38,4.22-4.66,8.41l-5.11-.79a19.11,19.11,0,0,0,2.5-4.1,26.15,26.15,0,0,0,1.93-7.61A2.3,2.3,0,0,1,950.68,744.26ZM867.5,638.57l5.45.91a31.2,31.2,0,0,0-3.64,2.5,29.21,29.21,0,0,0-2.15,2.16v-5.68Zm394.91,16.48a33.18,33.18,0,0,0-10.69-3.64,4.32,4.32,0,0,0-1.7-1l8.07-4.77q2.39-1.36,4.32-2.73h.45a93.49,93.49,0,0,1,13.52,8.18q3.87,2.85,7.39,5.91a87.23,87.23,0,0,1,24.09,33.41,92.19,92.19,0,0,1,6.25,34.44q0,3.4-3.41,26.36,0,6,6.14,16.48,7.17,12.27,18.07,14.77a24.52,24.52,0,0,0,5.79.69q16.48,0,31.71-13.19A52.78,52.78,0,0,1,1382,763a41.74,41.74,0,0,1,22.16-6.48q13.41,0,21.59,2.62t12.5,2.5a22.87,22.87,0,0,0,16.37-6.94.29.29,0,0,1,.11-.22,28.32,28.32,0,0,1-1.71,14.43,1.37,1.37,0,0,1-.34,1,.3.3,0,0,1-.34.34,15.08,15.08,0,0,1-1.25,4c-.07,0-.11,0-.11.12h-.34a17.26,17.26,0,0,1-4.44,6q-.33.35-3.63,3.07c-1.36,1.36-3.26,3.06-5.68,5.11a1,1,0,0,1-.69.34,38,38,0,0,0-6.13,6.71c-.45.91-.91,1.81-1.36,2.72q-9.43.23-17.51.91-21.59,1.59-34,6.48-19,7.5-28.86,22.62-10.9,16.35-10.91,41.7,0,10.8,4.66,25a44.12,44.12,0,0,1-4.32-1.7l-10.12-4a24.85,24.85,0,0,0-3.06-1q-20.23-8.19-32-10.8a171.11,171.11,0,0,0-12.16-38.75q.35-13.86-2.39-54.55-1.92-34.43-.22-54.43,13.07-7.62,16.13-21.26a35.92,35.92,0,0,0,0-13.4,37.18,37.18,0,0,0-3.41-11.48,58.58,58.58,0,0,0-16.93-21.82A39.33,39.33,0,0,0,1262.41,655.05ZM951,641.07a18.18,18.18,0,0,0-8.86,4q-5.91-1.71-6.93-3.52v-.8a2.79,2.79,0,0,1,1.25-2.05,24.49,24.49,0,0,0,8.07,1.26q1.37,0,2.61-.12A25.45,25.45,0,0,0,951,641.07Zm35,7.84h-2.5q-4.66,0-8.87-.11c-.6-.61-1.25-1.21-1.93-1.82a25.43,25.43,0,0,0-5.11-3.41q7.26.46,15.91.46h.56a15.8,15.8,0,0,0,2.73,1.36A16,16,0,0,0,986,648.91Zm37.16-13.63q9.19,2.26,9.2,5.11v.34c-.22.83-1.13,1.63-2.73,2.39-.45-.31-.87-.57-1.24-.8a19.54,19.54,0,0,0-5-6.48,1.25,1.25,0,0,0-.34-.22Zm-45.8,581.62v-43.18l17.39,3.06c-.69,1.52-1.44,3-2.28,4.55q-2.61,4.89-4.66,9.55-2.39,4.65-4.31,9.09A161.41,161.41,0,0,0,977.39,1216.9Z"/>
  <path class="lg-cls-10" d="M1502.53,1087.46q9.43,5.24,17.62,10.12,30.9,18.86,39.66,31.36a216.09,216.09,0,0,0,53.3,5.11q17,.35,38.18-1,9.56-.57,19.89-1.47,24.54-2.16,53.87-6.37,69.09-9.54,77.16-72,13.07,9.43,17.84,28,13.07,50,11.14,91.25-245.7,79-424.12,86.71V1173.6l-1,.23.91-.23-144-25.45q20.35-2.16,20.8-24v-21.25q0-25.8-25.68-25.8h-8.19v-3.41q0-3.06-11.13-5a105.62,105.62,0,0,0-10.8-1.36,18.73,18.73,0,0,0,4-11.82q-.12-12.39,6.59-20.34c.38-.16.79-.31,1.25-.46a91,91,0,0,0,24.77-15.11,57,57,0,0,0,17.73-27.51V992q8.07-26.13-2.15-43.86a51.69,51.69,0,0,0-4.21-6q-11-14.31-20.46-20.91l-1.36-.91-.11-.11q-5.91-4.09-17.51-11.14-4.65-2.73-10.34-6.14a20.37,20.37,0,0,1-10.57-17.5q.24-10.68,11.71-17l.11-.12,4.55-2.72q5.34-3.3,10.12-6.71h-59.56q-1.12,2.16-2,4.32a50.31,50.31,0,0,0-3.75,24.21q1.47,32.49,29.66,49.09,18.07,10.58,25.68,15.91h.23q5.68,4.2,12.73,13.41,3,5.68.11,14.66-4.43,11.15-18.86,17.84a31.36,31.36,0,0,0-15.69,9.89q-17.71,18.18-17.5,47.61a18.62,18.62,0,0,0,3.75,11.48,115.25,115.25,0,0,0-12.38,1.48q-7.28,1.24-9.78,3c-.91.52-1.36,1.09-1.36,1.7v65.69l-35.23,6.25a28.27,28.27,0,0,1,.68-10.57q3.18-12.73,4.89-22.39,1.47-9.78,5.57-39t2.16-42.28q-1.83-13.18-5.34-19.88-3.3-6.83-5.91-24.44t4.77-19.88q7.61-2.4,16.36-17.51,9-15-10.57-32.5l-.22-.22q-.57-11.6-3.87-16.48c-.22-.38-.45-.76-.68-1.14q-4-6-6.36-4.88t-6.82,8.06q-4.32,6.82-9.09,13.19-8.64,1.92-10.8,3.18-1.93,1.13-19.55-10.8-17.71-12.16-21.25-7.5c.69,2.12,1.37,4.21,2,6.25l3.3,9.89a1.35,1.35,0,0,1,.11.57v.11c.23.76.45,1.44.68,2,.83,2.34,1.55,4.43,2.16,6.25a4.57,4.57,0,0,1,.23.56l2.16,7.85a89.78,89.78,0,0,1,1.81,31.82q-3.18,26.7-23.29,34.32t-26.94,18.86q-6.93,11.25-12.72,34.66a414,414,0,0,0-8.75,43.64q-2.4,17.61-3.53,33.75-126.14-93.4-127.73-150.35,3.63-56,22.39-114.1c1.59-2.12,3.25-4.31,5-6.59.75-1.13,1.51-2.19,2.27-3.18a20.86,20.86,0,0,0,14.32,5.12q14.31,0,19.66-10.91a25.71,25.71,0,0,0,2.27-7.73,32.47,32.47,0,0,0,.23-4,24.89,24.89,0,0,0-.34-4.2,23.86,23.86,0,0,0,8.52,1.36q11.6,0,15.68-8.41,1.49-8.07,1.48-7.5a14.49,14.49,0,0,0-5.45-11.82,18.32,18.32,0,0,0-11.94-4,17.91,17.91,0,0,0-7.38,1.48q11.36-15.57,17.61-23.86,4.1-5.58,5.91-8l.8-.79q5.91-6.94,21-19.1,14.21-11.48,36.48-27.73,11.7-8.52,30.46-21.93,25.56-18.4,64.09-45.91,22-16.14,40-29.89-12.5,18-15.57,51.48,39.44,87.61,81.49,156.49,10.34,17,21,33,6.93,10.44,14.09,20.56,11.25,15.92,22.73,30.69,2.73,3.52,5.68,7.27,7.5,9.32,15.12,18.3,15,17.39,30.34,32.84a499.05,499.05,0,0,0,41.25,37,368.71,368.71,0,0,0,67.73,43.18l1.37.68q9.88,4.78,18.86,9.32Q1487.53,1079.17,1502.53,1087.46ZM1480.37,870.4Q1469,864.84,1453,856.31a21.75,21.75,0,0,0-7.49-3.41q-2.62-.67-8-1.59-8.52-2.73-7.5-12.16v-1.7q-.45-10.35-1.25-18.19,5.91,6.36,11.82,12.62Q1459.8,851.88,1480.37,870.4ZM1187.17,611q11.82-9.78,21.14-18.19a100.1,100.1,0,0,0,21.14,10q27.61,9.56,41.14.34c-.23-.6-.46-1.17-.68-1.7a109.54,109.54,0,0,1,22.5,21.14,63.69,63.69,0,0,1-11.37,9.2q-3.06,2.06-7.5,4.78l-6.25,3.75a157,157,0,0,0-28.75-20.69Q1208.54,603.22,1187.17,611ZM937.73,820.51c.22-.37.41-.72.56-1V821A4.76,4.76,0,0,0,937.73,820.51ZM923.86,880.4a17.84,17.84,0,0,0-12,4.21,15,15,0,0,0-5.46,12.16A14.6,14.6,0,0,0,910,906.2q4.77,6.25,14,6.25,11.82,0,15.91-8.64,1.59-7.83,1.59-7A15,15,0,0,0,936,884.61,18.26,18.26,0,0,0,923.86,880.4Zm326,252.4v-40.11h8.19q10.11,0,10.11,10.23v20.68q-.45,9.21-10.11,9.2Zm-57.73,78.76-86.71-15.23a.39.39,0,0,0-.17-.11l86.88,15.23Z"/>
  <path class="lg-cls-11" d="M1527.65,1093.6q17.61-.57,35.46-1,8.52,1.92,20,4.54,26.26,5.69,43.53,2.05a44.49,44.49,0,0,0,23.64-12.5q1.71-1.71,3.18-3.41,6.71-1.83,13.41-3.75c1.44-.46,2.88-1,4.32-1.48q43.07-15.57,26.7-66.94l104.33,42.05q-8.07,62.5-77.16,72-29.33,4.2-53.87,6.37-10.35.9-19.89,1.47-21.13,1.37-38.18,1a216.09,216.09,0,0,1-53.3-5.11q-8.76-12.5-39.66-31.36Q1524.13,1095.42,1527.65,1093.6ZM907.16,856.88c.38-1.21.79-2.42,1.25-3.64a40.09,40.09,0,0,0,2.84,3.41c-.76,1-1.52,2.05-2.27,3.18-1.75,2.28-3.41,4.47-5,6.59Q905.45,861.65,907.16,856.88Zm301.15-264.11q-9.32,8.41-21.14,18.19h-.11v.11q-1.36.45-2.73,1L1177,616.3l-.8.57c-1.21.9-2.39,1.85-3.52,2.84a1.25,1.25,0,0,0-.34.22l-6.59,7.62a4.55,4.55,0,0,0-.91,1.25l-.12.11q-18,13.76-40,29.89-38.52,27.5-64.09,45.91-18.76,13.41-30.46,21.93-22.27,16.26-36.48,27.73-15.12,12.17-21,19.1l-.8.79q-1.82,2.38-5.91,8-6.25,8.29-17.61,23.86a15.06,15.06,0,0,0-4.44,2.5,14.15,14.15,0,0,0-5.57,10.91c-.15.3-.34.65-.56,1a23.18,23.18,0,0,0-12.28-3.18,23.49,23.49,0,0,0-3.29.23q11.93-28.06,27.27-56.6a31.68,31.68,0,0,1,1.82-3.52q2.28-4.2,4.66-8.41a19.88,19.88,0,0,0,9.43,2.05q11.82,0,15.91-9,1.59-8,1.59-7.05a14.59,14.59,0,0,0-5.56-12,17.2,17.2,0,0,0-4.55-2.73q8.41-13.51,17.5-27.27l3.64-5.46q3.52-5.34,7.38-10.34,6,7.15,16.25,7.16,14.77,0,19.89-10.8a25.6,25.6,0,0,0,2-7.84,27.77,27.77,0,0,0,.22-4q0-10.34-6.81-16.36a19.07,19.07,0,0,0-1.94-1.48l.12-.11q4.77-4.54,9.89-8.75,58.63-48.64,145.46-54.21,3-.23,6.13-.34A107.11,107.11,0,0,0,1208.31,592.77Z"/>
  <path class="lg-cls-12" d="M1697.88,1011.09q16.38,51.37-26.7,66.94c-1.44.53-2.88,1-4.32,1.48q-6.7,1.92-13.41,3.75a33.68,33.68,0,0,0,3.07-4.78l2.27-5,1.14-5.23a26.6,26.6,0,0,0,.11-5.56q-1.47-10.8-12.84-16.82-2.06-1.14-20.79-8.07,44.65-33.75,45-34.09c1.37-1,2.81-2,4.32-3Q1686.64,1006,1697.88,1011.09Zm62,294.45q-58.4,41.25-164.1,54.21-100.33,12.49-188.76,13.52V1259.06q178.42-7.72,424.12-86.71-3.53,79.79-62.85,126.71Q1764.26,1302.36,1759.93,1305.54Zm-878.34-325q1.59,56.94,127.73,150.35c-.15,1.59-.26,3.15-.34,4.66-.15,3.33-.19,6.48-.11,9.43q-2.05,7.74-10.57,24.89l-21,3.75,17.61,3.07-.11.11-17.39-3.06v43.18A80.5,80.5,0,0,0,975,1228q-2.38,16.7,1.48,28.75-65.46-63.87-87.16-165.92-1.71-8.52-3.19-17A399.24,399.24,0,0,1,881.59,980.52Zm349-143.64Q1188.53,768,1149.1,680.39q3.08-33.52,15.57-51.48l.12-.11a4.55,4.55,0,0,1,.91-1.25l6.59-7.62a1.25,1.25,0,0,1,.34-.22c1.13-1,2.31-1.94,3.52-2.84l.8-.57,7.38-4.21q1.37-.57,2.73-1V611h.11q21.38-7.74,51.37,8.63a157,157,0,0,1,28.75,20.69c-1.36.75-2.84,1.63-4.43,2.61h-.45q-1.94,1.36-4.32,2.73l-8.07,4.77a4,4,0,0,1-1,.68q-21.81,6-29.31,29.89-6,20.34-.69,44.55a754.11,754.11,0,0,1,10.12,81.25Zm61.93,40.68q-7.5,1-10.8-3.07a4,4,0,0,1-1-1.25q-2-3.86-1-9.88.69-12,.68-24.55A171.11,171.11,0,0,1,1292.52,877.56Zm-187.06,318.77L1019,1181v-.11l86.26,15.34h0A.39.39,0,0,1,1105.46,1196.33ZM1539.58,1088q4.1.23,23.53,4.55-17.85.45-35.46,1A112.47,112.47,0,0,1,1539.58,1088Z"/>
  <path class="lg-cls-13" d="M1266.72,456q-53.52,5.22-79.09,56.59-7.05,14.1-14.55,39.66-1.24-3.63-2.27-7.38l-2.73-25.69q0-6.58.34-14.43.35-4,.68-8.52,5.36-51.15,81.26-75.46l9.09-.68q9.09,0,18,.34,18.28,1.59,30,6.59a30.88,30.88,0,0,0-8.52-1.14A32.56,32.56,0,0,0,1266.72,456ZM1452,521.52q-39.09-31-73.87-55.57-25.56-18.3-45.45-30.46a104.1,104.1,0,0,1,22.27-5q35.34-4,61.37,14.89,13,11.72,24.89,31.25T1452,521.52Zm-172.28-36.59a89,89,0,0,1,16.13-27.16,64.09,64.09,0,0,1,6.14,5.45q11.25,10.57,19.1,19.32,18.06,19.89,18.06,29.32,0,21.14-23.29,26.59-9.88,2.28-39.44,4-.68-5-2.49-16.14-1.38-11.13,2.84-31a32.71,32.71,0,0,1,.9-3.53A58.74,58.74,0,0,1,1279.68,484.93Zm42.16,91.25q-2,1.37-4.43,2.73Q1318.43,577.2,1321.84,576.18Z"/>
  <path class="lg-cls-14" d="M1279.68,484.93a58.74,58.74,0,0,0-2,6.81q-30.45,51.15-7.72,109.67c.22.53.45,1.1.68,1.7q-13.53,9.21-41.14-.34a100.1,100.1,0,0,1-21.14-10,107.11,107.11,0,0,1-15.8-12.27,94.27,94.27,0,0,1-9.54-10.11q-8.52-10-12.16-25.57,1,3.75,2.27,7.38,7.5-25.56,14.55-39.66,25.56-51.36,79.09-56.59c-.07.75-.11,1.59-.11,2.5a32.4,32.4,0,0,0,9.43,23.29A33.5,33.5,0,0,0,1279.68,484.93Zm53-49.44q19.89,12.17,45.45,30.46,34.79,24.54,73.87,55.57-.68,19.77-13.86,31.48a4.9,4.9,0,0,1-2.39,1.25q-3.4-11.14-15.23-14.78a95.93,95.93,0,0,1-46.36-29.77q-1,3.18-2.16,6.36a84.32,84.32,0,0,1-8.3,18,149.71,149.71,0,0,1-11.13,15.57,163.45,163.45,0,0,1-30.69,26.59q-3.4,1-4.43,2.73a25.4,25.4,0,0,0-6.42,2.38q-2.68,1.5-8.7,1.71-13.53-4.08-14.66-8.18-10.23-19.89-11.25-32.39,29.55-1.71,39.44-4,23.29-5.44,23.29-26.59,0-9.44-18.06-29.32-7.85-8.75-19.1-19.32a64.09,64.09,0,0,0-6.14-5.45,7.22,7.22,0,0,0,1-1.25l.68-.69a113.21,113.21,0,0,1,15.91-11.47,76.86,76.86,0,0,1,11.14-5.69C1327.15,437.54,1329.83,436.48,1332.64,435.49Z"/>
  <path class="lg-cls-15" d="M1742,921a38.63,38.63,0,0,0-3.75-8.86,31.74,31.74,0,0,0-5.46-7.84q-8.41-10.8-24.32-13.41a66.51,66.51,0,0,0-28,1.25,83.82,83.82,0,0,1-23.07,17.16l.34-.23a104.81,104.81,0,0,0,13.41-8.52,68.34,68.34,0,0,0,9.32-8.52,66.86,66.86,0,0,1,28.07-1.25q15.79,2.61,24.2,13.4A37,37,0,0,1,1742,921Zm-.8,23.41v-.68c.23-.6.46-1.21.68-1.82C1741.64,942.72,1741.41,943.55,1741.18,944.38Zm-185.69,53.3q-1.14,2.05-2.38,4.09-18.3,28.88-35.8,44.55v-.11q17.49-15.69,35.8-44.55C1553.86,1000.3,1554.66,999,1555.49,997.68Z"/>
  <path class="lg-cls-16" d="M1430.71,565.73a482.66,482.66,0,0,1-56.14-25.23q-5.57-3.18-10.91-6.48a84.32,84.32,0,0,0,8.3-18q1.13-3.18,2.16-6.36a95.93,95.93,0,0,0,46.36,29.77q11.82,3.64,15.23,14.78Zm-50.57,69.43a137.09,137.09,0,0,1-9.09,24q-30.35,5.24-67.28-50.12a6.85,6.85,0,0,1-.8-1.25,5,5,0,0,1-.34-2.95q.24-2-.34-21.82,6-.21,8.7-1.71a25.4,25.4,0,0,1,6.42-2.38,94.38,94.38,0,0,0,24.66,35.68Q1359.58,630.39,1380.14,635.16ZM1265.7,890.4q-7.15-10.11-14.09-20.56a6.35,6.35,0,0,1,.79-.46,10,10,0,0,1,1.37-.57,59.81,59.81,0,0,1,6-2.39,64.07,64.07,0,0,1,19.89-3.06q-1,6,1,9.88-2,1.93-4.32,4.32Q1268.77,885.3,1265.7,890.4Zm28.41,38q-3-3.75-5.68-7.27,6.58,4.77,11.14,8.41c-1.14-.23-2.16-.46-3.07-.68Z"/>
  <path class="lg-cls-17" d="M1386.62,629.14l-3.3,3.18-3.18,2.84q-20.57-4.77-38.07-20.57a94.38,94.38,0,0,1-24.66-35.68q2.38-1.36,4.43-2.73a163.45,163.45,0,0,0,30.69-26.59A149.71,149.71,0,0,0,1363.66,534q5.34,3.3,10.91,6.48a482.66,482.66,0,0,0,56.14,25.23Q1413.21,605.17,1386.62,629.14Zm-44.55,265.92q14.43,5.81,20.91,7.73,22.15,6.93,40.46,4.89a65.58,65.58,0,0,0,30-11.14q22.27-1.47,33.41-.79,11,1,17.73,5.79-.91,4.1,3.86,3.18h.11l.23.23c-.53,1.51-.49,2.58.12,3.18a23,23,0,0,0-9.1,4.32L1462,926.31q-8.87,3.87-29.88,10.23l-3.07.91q-19.56,5.34-33.42,3.75-18.4-5.57-49.2-8.07-17.85-1.35-29.55-2l-17.27-1.59q-4.54-3.64-11.14-8.41Q1277,906.32,1265.7,890.4q3.08-5.11,10.68-12.84,2.28-2.38,4.32-4.32a4,4,0,0,0,1,1.25q3.3,4.1,10.8,3.07,11.82,2.63,32,10.8a24.85,24.85,0,0,1,3.06,1l10.12,4A44.12,44.12,0,0,0,1342.07,895.06Z"/>
  <path class="lg-cls-18" d="M1249,651.07a4,4,0,0,0,1-.68,4.32,4.32,0,0,1,1.7,1A11.6,11.6,0,0,0,1249,651.07Z"/>
  <path class="lg-cls-19" d="M1416.28,642.09a40.52,40.52,0,0,1,8.07,15.91,3.15,3.15,0,0,1,.34,1.37v.79a3.94,3.94,0,0,1,.34,1.71,1.38,1.38,0,0,1,.34,1,2.37,2.37,0,0,1,.34,1.25,3.78,3.78,0,0,1,.34,1.71l1,25.91a31.08,31.08,0,0,1-.34,4.66c-.23,2.12-.45,4.16-.68,6.13a101.83,101.83,0,0,0-3.75-11.13,28.77,28.77,0,0,0-1-4l-8.07-21.94q-2.16-5.44-4.66-10.34a127.73,127.73,0,0,0-10.91-18.29q-2-2.73-4-5.46a13.67,13.67,0,0,1,4.32.68A31.14,31.14,0,0,1,1416.28,642.09Zm12.5,177.17q.79,7.85,1.25,18.19v1.7l-8.75-.34a6.43,6.43,0,0,1,.34-2q1.25-6.81,4.66-20.34c.45-1.89,1-3.86,1.48-5.91Q1428.32,814.38,1428.78,819.26Zm-177.17,50.58q-10.68-15.92-21-33l-1.48-30.12A754.11,754.11,0,0,0,1219,725.51q-5.34-24.21.69-44.55,7.5-23.87,29.31-29.89a11.6,11.6,0,0,1,2.73.34,33.18,33.18,0,0,1,10.69,3.64q-3.3,4-9,10.11Q1238,688.46,1238,719.37q0,27.74,11.71,91.48,5.11,28,10.11,55.57a59.81,59.81,0,0,0-6,2.39,10,10,0,0,0-1.37.57A6.35,6.35,0,0,0,1251.61,869.84Z"/>
  <path class="lg-cls-20" d="M1741.86,941.88c-.22.61-.45,1.22-.68,1.82a1,1,0,0,1-.34.68l.34.35q-5.34,19.2-21.93,28.75a484,484,0,0,0-43.53,27.27c-1.51,1-3,2-4.32,3q-.33.33-45,34.09h-.12l-13.52,8.86a29.12,29.12,0,0,1-4.1,2.62,1.9,1.9,0,0,1-.45.34H1608l-9,5.68q-14.88,8.87-27.84,16.71-1.37.79-2.61,1.59-17.28,8.52-21.48,11.13H1547l-7.38,3.3a112.47,112.47,0,0,0-11.93,5.57q-3.53,1.82-7.5,4-8.19-4.89-17.62-10.12,13.31-9.43,37.73-23.75,71.6-41.37,96.48-60.34,24-17.73,63.76-53.53,21.48-22.62,32.61-33.41a34.47,34.47,0,0,1,5.12-4.32A38.63,38.63,0,0,1,1742,921l1.13,9.89-.9,9.43a8.61,8.61,0,0,0-.35,1.37Zm-432.63,4.78q-7.62-9-15.12-18.3l2.39.46c.91.22,1.93.45,3.07.68l17.27,1.59q-1.71,3.52-5.23,9.2C1310.78,942.34,1310,944.46,1309.23,946.66Zm-83.3,123,4.43.68q7.73,1.37,7.73,3.07c0,1.06-.91,1.82-2.73,2.27s-4.28,1-7.62,1.71q-4.87.68-16.36,1a83.05,83.05,0,0,1-18.41-1.7c-1.36-.23-2.54-.46-3.52-.69-2.88-.68-4.44-1.55-4.66-2.61.22-1.14,3-2.27,8.18-3.41a53.75,53.75,0,0,1,5.68-.68.35.35,0,0,1,.23.11,18.59,18.59,0,0,0,13.64,5.68A19.1,19.1,0,0,0,1225.93,1069.62Zm37,78.53c-1.51.15-3.14.22-4.88.22h-8.19V1132.8h8.19q9.66,0,10.11-9.2v-20.68q0-10.23-10.11-10.23h-8.19v-15.57h8.19q25.68,0,25.68,25.8v21.25Q1283.32,1146,1263,1148.15Zm117.85-131.6a499.05,499.05,0,0,1-41.25-37l41.14-22.73c2-.91,4.09-1.78,6.13-2.61q29.1-11.82,56.37-13.07,5-.23,10-.12,7.27.24,14.21,1l15.23,2q19.88,7.5,30,28.75,1.81,4,3.18,8c.45,1.44.87,2.92,1.25,4.43l1.36,13.07-2,14.21c-.23.75-.46,1.44-.69,2a12.85,12.85,0,0,0-.68,2.5l-.91,8a32.92,32.92,0,0,0,.23,5.34,4.18,4.18,0,0,1,.34,1.25l2.62,14.66v.11q-4.32,10.35-16.48,16.48v-.11l-15.91-39a41.06,41.06,0,0,1,1.7-7.84q1.82-6.37,1.82-8.07,0-10.8-5.79-17.85a20.46,20.46,0,0,0-2.73-2.84q-10.68-9.32-34.1-6.93a209.29,209.29,0,0,0-43.18,20.69q-6.14,3.75-12.05,8Q1386.51,1011.77,1380.82,1016.55Z"/>
  <path class="lg-cls-21" d="M1680.5,892a68.34,68.34,0,0,1-9.32,8.52,104.81,104.81,0,0,1-13.41,8.52l21.25-16.7A9.17,9.17,0,0,0,1680.5,892Zm-164.67,88.75L1571.4,971a24,24,0,0,0-1.71,2.73l-14.2,24c-.83,1.29-1.63,2.62-2.38,4q-18.3,28.87-35.8,44.55l-2.62-14.66a4.18,4.18,0,0,0-.34-1.25,32.92,32.92,0,0,1-.23-5.34l.91-8a12.85,12.85,0,0,1,.68-2.5c.23-.6.46-1.29.69-2l2-14.21-1.36-13.07C1516.7,983.67,1516.28,982.19,1515.83,980.75Zm-67.28,79a37.19,37.19,0,0,1,10.8,4.32q6.14,3.75,9.43,5.68-9-4.55-18.86-9.32Z"/>
  <path class="lg-cls-22" d="M1488.9,904.72a.35.35,0,0,0-.12.23l-.23-.23Zm5.45-27.5-9.2,22.5c-.23.69-.42,1.29-.57,1.82q-6.7-4.77-17.73-5.79-11.14-.69-33.41.79a71.37,71.37,0,0,1-12.84-27.73,60.65,60.65,0,0,1,.68-30l8.75.34q-1,9.44,7.5,12.16,5.34.91,8,1.59a21.75,21.75,0,0,1,7.49,3.41q16,8.52,27.39,14.09c2.05,1,3.94,1.93,5.69,2.84Q1490.14,875.3,1494.35,877.22Z"/>
  <path class="lg-cls-23" d="M1462,926.31,1443.32,941c-3.48.16-7,.42-10.57.8A180.34,180.34,0,0,0,1387,954c-2.12.84-4.21,1.75-6.25,2.73l-41.14,22.73q-15.35-15.45-30.34-32.84c.75-2.2,1.55-4.32,2.38-6.37q3.53-5.68,5.23-9.2,11.7.67,29.55,2,30.79,2.5,49.2,8.07,13.88,1.59,33.42-3.75l3.07-.91Q1453.09,930.18,1462,926.31Z"/>
  <path class="lg-cls-24" d="M1443.32,941l-.11.12q-27.27,1.24-56.37,13.07c-2,.83-4.09,1.7-6.13,2.61,2-1,4.13-1.89,6.25-2.73a180.34,180.34,0,0,1,45.79-12.27C1436.32,941.39,1439.84,941.13,1443.32,941Z"/>
  <path class="lg-cls-25" d="M1563.11,1092.58q-19.44-4.32-23.53-4.55l7.38-3.3q11.14,6.93,20.58,2.62a14.8,14.8,0,0,0,6-4.89l3.52-13.29q6.7-4.44,15.12-9.1l-1.82,13.07a18.94,18.94,0,0,0-.57,2c-.07.53-.19,1.17-.34,1.93l-2.27,8.18c-.46,1.29-1,2.77-1.48,4.43q14.31,1.37,21.59-13.18c.53-1,1-1.89,1.36-2.73l1.83-8-1.83-6.93a21.76,21.76,0,0,0-5.34-6h.12l2.27-1.59c.76-.6,1.52-1.17,2.28-1.7h.22a1.9,1.9,0,0,0,.45-.34,29.12,29.12,0,0,0,4.1-2.62l13.52-8.86h.12q18.75,6.93,20.79,8.07,11.37,6,12.84,16.82a26.6,26.6,0,0,1-.11,5.56l-1.14,5.23-2.27,5a33.68,33.68,0,0,1-3.07,4.78q-1.47,1.7-3.18,3.41a44.49,44.49,0,0,1-23.64,12.5q-17.27,3.63-43.53-2.05Q1571.63,1094.51,1563.11,1092.58Z"/>
  <path class="lg-cls-26" d="M1603.33,1052.91a21.76,21.76,0,0,1,5.34,6l1.83,6.93-1.83,8c-.37.84-.83,1.75-1.36,2.73q-7.27,14.55-21.59,13.18c.53-1.66,1-3.14,1.48-4.43l2.27-8.18c.15-.76.27-1.4.34-1.93a18.94,18.94,0,0,1,.57-2l1.82-13.07Zm-34.77,20.69q4.1-2.05,8.52-4.43l-3.52,13.29a14.8,14.8,0,0,1-6,4.89q-9.43,4.32-20.58-2.62h.12Q1551.28,1082.12,1568.56,1073.6Z"/>
  <path class="lg-cls-27" d="M1759.71,705.28l.57-.11q5.67-1,3.18,5.11l-62.62,155.8q-2.5,5.8-7.5,7a2.76,2.76,0,0,0-.8.11l-200.23,35.35a2.37,2.37,0,0,1-.69.11c-1.36.15-2.27,0-2.72-.57-.61-.6-.65-1.67-.12-3.18a.35.35,0,0,1,.12-.23,5.58,5.58,0,0,1,.34-1.13l62.61-155.81q2.51-6.13,8.18-7.16ZM1600,808.35q-3.07,10.46,2.5,17.85t16.25,7.38q10.8,0,20.68-7.38a34,34,0,0,0,11.82-15.46,20.91,20.91,0,0,0,.79-2.39q2.51-8.4-.79-15a10,10,0,0,0-1.59-2.72q-5.68-7.39-16.48-7.39t-20.45,7.39Q1603,798,1600,808.35Z"/>
  <path class="lg-cls-28" d="M1494.35,877.22l53.07-132.05q2.5-6.25,8.18-7.39l95.69-16.93,19.89-3.41,84.66-15.12q4.44-.68,3.87,3L1560,740.62q-5.67,1-8.18,7.16l-62.61,155.81a5.58,5.58,0,0,0-.34,1.13h-.46q-4.77.91-3.86-3.18c.15-.53.34-1.13.57-1.82Zm-51,63.75L1462,926.31l17.84-13.86a23,23,0,0,1,9.1-4.32c.45.53,1.36.72,2.72.57a2.37,2.37,0,0,0,.69-.11l200.23-35.35a2.76,2.76,0,0,1,.8-.11,6.4,6.4,0,0,1-1.93,1.82l-5.91,4.77-193.31,34.09h-.11A21.41,21.41,0,0,0,1484,917l-1.82,1.36-29,22.61q-5-.11-10,.12ZM1600,808.35q3-10.33,12.73-17.72t20.45-7.39q10.8,0,16.48,7.39a10,10,0,0,1,1.59,2.72q3.3,6.6.79,15a20.91,20.91,0,0,1-.79,2.39,34,34,0,0,1-11.82,15.46q-9.88,7.38-20.68,7.38t-16.25-7.38Q1597,818.81,1600,808.35Z"/>
  <path class="lg-cls-29" d="M1571.4,971l-55.57,9.77q-1.36-4-3.18-8-10.12-21.24-30-28.75l-15.23-2q-6.95-.79-14.21-1l29-22.61L1484,917a21.41,21.41,0,0,1,8.07-3.19h.11l193.31-34.09,6.82-1.25q5.79-1,1.48,2.39L1679,892.34,1657.77,909l-.34.23-.12.11h-.11q-6.93,3.75-26.59,11.71-34.77,14.53-47.51,31.7Q1578.11,960,1571.4,971Z"/>
  <path class="lg-cls-30" d="M1249.9,1162.12v3.53a43.48,43.48,0,0,1-22.61,8.07,121,121,0,0,1-34.66-.68,48,48,0,0,1-19.32-8.19v-91.14c.3.76,1.48,1.51,3.52,2.27a33.13,33.13,0,0,0,4.66,1.37c1.14.23,2.12.45,3,.68a149.46,149.46,0,0,0,27.27,2.16,191.37,191.37,0,0,0,21.14-1c2-.22,4-.49,5.91-.79,1.13-.23,2.16-.45,3.06-.68a15.81,15.81,0,0,0,2.28-.57c3.33-.91,5.27-1.82,5.79-2.73v87.73Z"/>
  <path class="lg-cls-31" d="M1173.31,1162.24v2.61a48,48,0,0,0,19.32,8.19,121,121,0,0,0,34.66.68,43.48,43.48,0,0,0,22.61-8.07v-3.53a1,1,0,0,0,.46.12q15.92,2.84,15.91,7.27v.8q-1.47,2.49-11.48,4.77l-4.43,1a259.22,259.22,0,0,1-38.19,2.39q-22.5,0-38.75-3a40.57,40.57,0,0,0-4.2-.8q-10.58-2.51-11.48-5.23v-.57Q1157.74,1165.08,1173.31,1162.24Z"/>
  <path class="lg-cls-32" d="M901.7,644.59q4.66,5.58,4.66,14a32.06,32.06,0,0,1-2.16,11.82q-5.12,10.8-19.66,10.8-11.25,0-17.38-8.64a1.8,1.8,0,0,0-.23-.34,24.2,24.2,0,0,1-4.55-14q0-8.52,4.78-14.09a29.21,29.21,0,0,1,2.15-2.16,31.2,31.2,0,0,1,3.64-2.5,22.25,22.25,0,0,1,11.36-2.84,21.42,21.42,0,0,1,15.12,5.57A23,23,0,0,1,901.7,644.59Zm72.51-101.82a16.43,16.43,0,0,1,5.45,2.61,11.53,11.53,0,0,1,2.5,1.71,19.56,19.56,0,0,1,6.25,10.34c.08.68.19,1.44.34,2.27a28.83,28.83,0,0,1,.23,3.75,27.06,27.06,0,0,1-.23,4.09,20.75,20.75,0,0,1-2,7.73q-4.77,10.13-18.07,10.8h-1.82q-11.37,0-17.5-8.75a24.11,24.11,0,0,1-4.77-14.21,22.22,22.22,0,0,1,.79-6,.81.81,0,0,1,.12-.34,18.87,18.87,0,0,1,6-9.66,29.44,29.44,0,0,1,4.54-3,22.8,22.8,0,0,1,10.69-2.5A23.6,23.6,0,0,1,974.21,542.77Zm-37.62,6.59,1.14.91a19.28,19.28,0,0,1,4.43,5.68,22.69,22.69,0,0,1,2.39,10.69,27.47,27.47,0,0,1-.23,4,25.25,25.25,0,0,1-2.05,7.84,21.22,21.22,0,0,1-3.63,5.23q-5.68,5.57-16.25,5.57-11.49,0-17.51-8.64a23.6,23.6,0,0,1-4.77-14.32q0-10.11,6.93-16a24.4,24.4,0,0,1,29.55-.91Zm-28.3-38.3a24,24,0,0,1-5-14.66q0-10,6.94-16a24.35,24.35,0,0,1,30.57.11q6.93,6,6.93,16.37a33.51,33.51,0,0,1-.23,4.09,24.3,24.3,0,0,1-2.27,7.61q-5.34,10.92-19.66,10.91Q914.55,519.47,908.29,511.06Zm39.32,171.15c.08-1.21.12-2.42.12-3.64a15.25,15.25,0,0,0-4.89-11.7,16.42,16.42,0,0,0-7.5-4,11.36,11.36,0,0,1-.11-1.48,22.86,22.86,0,0,1,2.27-10.57,15.6,15.6,0,0,1,4.66-5.79,18.18,18.18,0,0,1,8.86-4,35.07,35.07,0,0,1,6.37-.34,27,27,0,0,1,10.23,2.84,25.43,25.43,0,0,1,5.11,3.41c.68.61,1.33,1.21,1.93,1.82a17.93,17.93,0,0,1,3.07,4.32,19.46,19.46,0,0,1,1.93,8.63,26.15,26.15,0,0,1-.23,4,23.58,23.58,0,0,1-2.15,7.84q-3.87,8.19-13.42,10.23a33.51,33.51,0,0,1-6.36.57A21.83,21.83,0,0,1,947.61,682.21Zm.8,47.84a17.22,17.22,0,0,0-.68,5,15.66,15.66,0,0,0,2.95,9.21,2.3,2.3,0,0,0-.11.68,26.15,26.15,0,0,1-1.93,7.61,19.11,19.11,0,0,1-2.5,4.1c-.08,0-.12,0-.12.11q-5.57,6.71-17,6.71-11.15,0-17.62-8.53a36.8,36.8,0,0,1-2.84-4.89,22.42,22.42,0,0,1-2.16-9.54q0-10.11,6.93-16.14A22.94,22.94,0,0,1,928.52,719a22.26,22.26,0,0,1,15.34,5.45A21.11,21.11,0,0,1,948.41,730.05Zm75.23-251.83q9.21,0,15.34,5.46,6.93,6,6.94,16.36a32.47,32.47,0,0,1-.23,4,27.8,27.8,0,0,1-2.16,7.73q-5.34,10.9-19.78,10.91a20.32,20.32,0,0,1-17.27-8.64,24,24,0,0,1-5-14.43q0-10,6.93-16A22.94,22.94,0,0,1,1023.64,478.22ZM986.82,645.39a16.82,16.82,0,0,0,5.34.8q10.58,0,14.44-8.64,1-5.46,1.47-6.93a22.94,22.94,0,0,1,15,5,1.25,1.25,0,0,1,.34.22,19.54,19.54,0,0,1,5,6.48c.37.23.79.49,1.24.8s.8.45,1.25.68v.11a19.07,19.07,0,0,1,1.94,1.48q6.81,6,6.81,16.36a27.77,27.77,0,0,1-.22,4,25.6,25.6,0,0,1-2,7.84q-5.12,10.8-19.89,10.8-10.21,0-16.25-7.16a9.85,9.85,0,0,1-1.36-1.7c-.61-1-1.17-2-1.7-3a20.62,20.62,0,0,1-7.62-6.48,24.25,24.25,0,0,1-4.66-14.32v-.11q0-1.36.12-2.73A16,16,0,0,1,986.82,645.39ZM937.73,820.51a4.76,4.76,0,0,1,.56.46,14.86,14.86,0,0,0,3.19,9.2,14,14,0,0,0,5.91,4.78,24.89,24.89,0,0,1,.34,4.2,32.47,32.47,0,0,1-.23,4,25.71,25.71,0,0,1-2.27,7.73q-5.34,10.9-19.66,10.91a20.86,20.86,0,0,1-14.32-5.12,40.09,40.09,0,0,1-2.84-3.41l-.12-.11a23.7,23.7,0,0,1-5-14.43q0-10,6.94-16a22,22,0,0,1,11.93-5.11,23.49,23.49,0,0,1,3.29-.23A23.18,23.18,0,0,1,937.73,820.51Z"/>
  <path class="lg-cls-33" d="M935.34,662.89a16.42,16.42,0,0,1,7.5,4,15.25,15.25,0,0,1,4.89,11.7c0,1.22,0,2.43-.12,3.64a22.34,22.34,0,0,1-1.59,6q-3.53,8.53-13.86,8.53-8.76,0-13-6.82a20.35,20.35,0,0,1-3.07-11q0-8.4,5-12.84a14.12,14.12,0,0,1,10.79-3.63A24.89,24.89,0,0,1,935.34,662.89Zm15.34,81.37a15.66,15.66,0,0,1-2.95-9.21,17.22,17.22,0,0,1,.68-5,13.14,13.14,0,0,1,4.77-7,17,17,0,0,1,10.68-4,9,9,0,0,1,1.37-.11,20,20,0,0,1,7.5,1.36,17.2,17.2,0,0,1,4.55,2.73,14.59,14.59,0,0,1,5.56,12q0-1-1.59,7.05-4.08,9-15.91,9a19.88,19.88,0,0,1-9.43-2.05,15.37,15.37,0,0,1-5.11-4.54A.33.33,0,0,1,950.68,744.26Zm-53.75,41.48a16.44,16.44,0,0,1-3.07-9.77,15,15,0,0,1,5-11.82,15.76,15.76,0,0,1,10.91-4,16,16,0,0,1,10.91,4q4.89,4.43,4.89,11.82,0-.57-1.71,7.5-3.75,8.4-13.86,8.41Q901.24,791.88,896.93,785.74Zm75.91-274.9a23.63,23.63,0,0,1,26.25,0,13.77,13.77,0,0,1,6,11.82q0-1-2.16,6.81-4.77,9.09-17.05,9.1-11.35,0-16-6.26a15,15,0,0,1-3.07-9.65A13.76,13.76,0,0,1,972.84,510.84Zm-25.68,129q-1.24.12-2.61.12a24.49,24.49,0,0,1-8.07-1.26,19.82,19.82,0,0,1-9.32-7.27,27.83,27.83,0,0,1-1.93-3.07A23.33,23.33,0,0,1,922.39,617q0-10.11,6.93-16A20.42,20.42,0,0,1,940,596a24.18,24.18,0,0,1,20,5q6.82,6,6.82,16.36a29.13,29.13,0,0,1-.23,4v.79a21.08,21.08,0,0,1-2,7Q959.78,638.91,947.16,639.82Zm60.91-9.2q-.45,1.47-1.47,6.93-3.87,8.64-14.44,8.64a16.82,16.82,0,0,1-5.34-.8,15.8,15.8,0,0,1-2.73-1.36,17.64,17.64,0,0,1-4.43-4.09,16.69,16.69,0,0,1-3.41-9.78,18.17,18.17,0,0,1,1-6.25,14.21,14.21,0,0,1,4-5.57,15.14,15.14,0,0,1,8.07-3.75,17.48,17.48,0,0,1,2.84-.22,15.91,15.91,0,0,1,11,4,15.29,15.29,0,0,1,5,11v.79ZM948.3,806.08a17.91,17.91,0,0,1,7.38-1.48,18.32,18.32,0,0,1,11.94,4,14.49,14.49,0,0,1,5.45,11.82q0-.57-1.48,7.5-4.08,8.42-15.68,8.41a23.86,23.86,0,0,1-8.52-1.36,14,14,0,0,1-5.91-4.78,14.86,14.86,0,0,1-3.19-9.2v-1.48a14.15,14.15,0,0,1,5.57-10.91A15.06,15.06,0,0,1,948.3,806.08ZM923.86,880.4A18.26,18.26,0,0,1,936,884.61a15,15,0,0,1,5.46,12.16q0-.79-1.59,7-4.1,8.64-15.91,8.64-9.21,0-14-6.25a14.6,14.6,0,0,1-3.64-9.43,15,15,0,0,1,5.46-12.16A17.84,17.84,0,0,1,923.86,880.4Z"/>
  <path class="lg-cls-34" d="M936.59,549.36a11.86,11.86,0,0,1,1.36-.91q3.42-1.94,11.48-3.29c2.05-.38,4.24-.72,6.59-1a29.44,29.44,0,0,0-4.54,3,18.87,18.87,0,0,0-6,9.66,1.76,1.76,0,0,0-.57-.11q-1.49-.35-2.73-.69a19.28,19.28,0,0,0-4.43-5.68Zm95.8,2.16q-.8,2.61-10.34,4.77c-1.36.31-2.61.57-3.75.8a191.78,191.78,0,0,1-29.55,2.61c-.15-.83-.26-1.59-.34-2.27a108.07,108.07,0,0,0,19.09-2c1.82-.3,3.26-.56,4.32-.79q5.56-1.37,6-3.41c-.31-1.44-3.75-2.92-10.35-4.43a147.23,147.23,0,0,0-24-1.59l-3.87.22a16.43,16.43,0,0,0-5.45-2.61q4.42-.22,9.32-.23a198.89,198.89,0,0,1,34.77,2.62q14.09,2.49,14.09,6Z"/>
  <path class="lg-cls-35" d="M979.66,545.38l3.87-.22a147.23,147.23,0,0,1,24,1.59c6.6,1.51,10,3,10.35,4.43q-.47,2-6,3.41c-1.06.23-2.5.49-4.32.79a108.07,108.07,0,0,1-19.09,2,19.56,19.56,0,0,0-6.25-10.34A11.53,11.53,0,0,0,979.66,545.38Z"/>
  <path class="lg-cls-36" d="M988.75,559.7a191.78,191.78,0,0,0,29.55-2.61c1.14-.23,2.39-.49,3.75-.8q9.56-2.16,10.34-4.77l-8.86,80.57-.34,3.19-.12.34a22.94,22.94,0,0,0-15-5l.12-.46v-.79a15.29,15.29,0,0,0-5-11,15.91,15.91,0,0,0-11-4,17.48,17.48,0,0,0-2.84.22,15.14,15.14,0,0,0-8.07,3.75,14.21,14.21,0,0,0-4,5.57,18.17,18.17,0,0,0-1,6.25,16.69,16.69,0,0,0,3.41,9.78,17.64,17.64,0,0,0,4.43,4.09h-.56q-8.64,0-15.91-.46a27,27,0,0,0-10.23-2.84,35.07,35.07,0,0,0-6.37.34,25.45,25.45,0,0,1-3.86-1.25q12.62-.92,17.39-10.68a21.08,21.08,0,0,0,2-7v-.79a29.13,29.13,0,0,0,.23-4Q966.82,607,960,601a24.18,24.18,0,0,0-20-5l-1.36-12.28a21.22,21.22,0,0,0,3.63-5.23,25.25,25.25,0,0,0,2.05-7.84,27.47,27.47,0,0,0,.23-4A22.69,22.69,0,0,0,942.16,556q1.25.34,2.73.69a1.76,1.76,0,0,1,.57.11.81.81,0,0,0-.12.34,22.22,22.22,0,0,0-.79,6,24.11,24.11,0,0,0,4.77,14.21q6.13,8.74,17.5,8.75h1.82q13.29-.69,18.07-10.8a20.75,20.75,0,0,0,2-7.73,27.06,27.06,0,0,0,.23-4.09A28.83,28.83,0,0,0,988.75,559.7Z"/>
  <path class="lg-cls-37" d="M1228,1067.35a10.11,10.11,0,0,1-1.7,1.93l-.34.34a19.1,19.1,0,0,1-13.41,5.45,18.59,18.59,0,0,1-13.64-5.68.35.35,0,0,0-.23-.11,21.09,21.09,0,0,1-1.82-2,18.62,18.62,0,0,1-3.75-11.48q-.22-29.43,17.5-47.61a31.36,31.36,0,0,1,15.69-9.89q14.43-6.71,18.86-17.84,2.85-9-.11-14.66-7.05-9.21-12.73-13.41h-.23q-7.61-5.34-25.68-15.91-28.19-16.59-29.66-49.09a50.31,50.31,0,0,1,3.75-24.21q.91-2.16,2-4.32h59.56q-4.78,3.42-10.12,6.71l-4.55,2.72-.11.12q-11.47,6.36-11.71,17a20.37,20.37,0,0,0,10.57,17.5q5.68,3.42,10.34,6.14,11.6,7.05,17.51,11.14l.11.11,1.36.91q9.43,6.6,20.46,20.91a51.69,51.69,0,0,1,4.21,6q10.21,17.72,2.15,43.86v.11a57,57,0,0,1-17.73,27.51,91,91,0,0,1-24.77,15.11c-.46.15-.87.3-1.25.46q-6.7,7.95-6.59,20.34A18.73,18.73,0,0,1,1228,1067.35Z"/>
</svg>
